<svg xmlns="http://www.w3.org/2000/svg" xmlns:xlink="http://www.w3.org/1999/xlink" id="body_3" preserveAspectRatio="xMinYMin meet" viewBox="0 0 816 1056"><defs><clipPath id="1"><path clip-rule="evenodd" d="M0 792L0 0L0 0L612 0L612 0L612 792L612 792L0 792z" /></clipPath></defs><g transform="matrix(1.333333 0 0 1.333333 0 0)"><g><g clip-path="url(#1)"><path transform="matrix(1 0 0 -1 0 792)" d="M36 665.434L576 665.434" stroke="#808080" stroke-width="1" fill="none" /><path transform="matrix(1 0 0 -1 0 792)" d="M119.1389 651.0086C 119.1389 652.1909 120.1215 653.15 121.3335 653.15L121.3335 653.15L146.6436 653.15C 147.8556 653.15 148.8384 652.1909 148.8384 651.0086L148.8384 651.0086L148.8384 625.4029C 148.8384 624.2205 147.8556 623.2618 146.6436 623.2618L146.6436 623.2618L121.3335 623.2618C 120.1215 623.2618 119.1389 624.2205 119.1389 625.4029L119.1389 625.4029L119.1389 651.0086L119.1389 651.0086L119.1389 651.0086z" stroke="none" fill="#BBBBBB" fill-rule="nonzero" /><path transform="matrix(1 0 0 -1 0 792)" d="M36 628.1145L48.39462 628.1145L48.39462 632.1839L40.48551 632.1839L40.48551 647.7084L36 647.7084L36 628.1145z" stroke="none" fill="#99999A" fill-rule="nonzero" /><path transform="matrix(1 0 0 -1 0 792)" d="M52.4268 643.4529C 53.99118 643.4529 54.9648 644.4892 54.9648 645.7849C 54.93564 647.1087 53.99145 648.1163 52.45677 648.1163C 50.92209 648.1163 49.9185 647.1087 49.9185 645.7849C 49.9185 644.4892 50.89185 643.4529 52.39737 643.4529L52.39737 643.4529L52.4268 643.4529L52.4268 643.4529L52.4268 643.4529zM54.66969 628.1145L54.66969 641.6107L54.66969 641.6107L50.18391 641.6107L50.18391 641.6107L50.18391 628.1145L50.18391 628.1145L54.66969 628.1145L54.66969 628.1145L54.66969 628.1145z" stroke="none" fill="#99999A" fill-rule="evenodd" /><path transform="matrix(1 0 0 -1 0 792)" d="M56.75247 628.1145L61.23825 628.1145L61.23825 628.1145L61.23825 635.6512C 61.23825 636.0544 61.26741 636.4572 61.38621 636.7455C 61.70994 637.5513 62.44839 638.3861 63.68742 638.3861C 65.31066 638.3861 65.96001 637.1481 65.96001 635.3348L65.96001 635.3348L65.96001 628.1145L65.96001 628.1145L70.44552 628.1145L70.44552 628.1145L70.44552 635.8532C 70.44552 639.9985 68.23233 641.9277 65.28096 641.9277C 62.86122 641.9277 61.79877 640.5745 61.20855 639.6535L61.20855 639.6535L61.23825 639.6535L61.23825 639.6535L61.23825 641.6107L61.23825 641.6107L56.75247 641.6107C 56.81133 640.3439 56.75247 628.1145 56.75247 628.1145L56.75247 628.1145L56.75247 628.1145z" stroke="none" fill="#99999A" fill-rule="evenodd" /><path transform="matrix(1 0 0 -1 0 792)" d="M76.77405 647.7084L72.28799 647.7084L72.28799 647.7084L72.28799 628.1145L72.28799 628.1145L76.77405 628.1145L76.77405 628.1145L76.77405 632.4898L76.77405 632.4898L77.89482 633.9011L77.89482 633.9011L81.40698 628.1145L81.40698 628.1145L86.92551 628.1145L86.92551 628.1145L81.02358 636.4918L81.02358 636.4918L86.18787 642.1918L86.18787 642.1918L80.78733 642.1918C 80.78733 642.1918 77.09859 637.0917 76.77405 636.4874L76.77405 636.4874L76.77405 647.7084L76.77405 647.7084L76.77405 647.7084z" stroke="none" fill="#99999A" fill-rule="nonzero" /><path transform="matrix(1 0 0 -1 0 792)" d="M89.59608 636.7788C 89.71434 637.9306 90.48141 639.6295 92.39977 639.6295C 94.43556 639.6295 94.90779 637.8151 94.90779 636.7788L94.90779 636.7788L89.59608 636.7788L89.59608 636.7788L89.59608 636.7788zM98.92162 633.7437C 98.98047 634.0904 99.06903 634.7551 99.06903 635.5073C 99.06903 638.996 97.29837 642.5374 92.63602 642.5374C 87.64803 642.5374 85.34628 638.5927 85.34628 635.0151C 85.34628 630.5901 88.14996 627.8264 93.04858 627.8264C 94.99663 627.8264 96.79645 628.1142 98.27226 628.7188L98.27226 628.7188L97.68178 631.6815C 96.47191 631.2802 95.23288 631.0801 93.6982 631.0801C 91.60272 631.0801 89.77321 631.9398 89.62552 633.7729L89.62552 633.7729L98.92162 633.7437L98.92162 633.7437L98.92162 633.7437z" stroke="none" fill="#99999A" fill-rule="evenodd" /><path transform="matrix(1 0 0 -1 0 792)" d="M110.1417 634.3615C 110.1417 634.0161 110.112 633.6705 110.0526 633.3832C 109.788 632.145 108.7251 631.2813 107.4266 631.2813C 105.5677 631.2813 104.3575 632.7784 104.3575 635.1391C 104.3575 637.3555 105.3905 639.1405 107.456 639.1405C 108.843 639.1405 109.8172 638.1906 110.0829 637.0104C 110.142 636.7515 110.142 636.4634 110.142 636.2042L110.142 636.2042L110.142 634.3615L110.142 634.3615L110.1417 634.3615zM110.1417 647.7084L110.1417 640.9257L110.1417 640.9257L110.0826 640.9257C 109.4335 641.8753 108.0757 642.5084 106.2759 642.5084C 102.8231 642.5084 99.78345 639.7448 99.81261 635.0238C 99.81261 630.6476 102.5569 627.798 105.9805 627.798C 107.8392 627.798 109.6101 628.6037 110.4957 630.1584L110.4957 630.1584L110.584 630.1584L110.584 630.1584L110.7611 628.1145L110.7611 628.1145L114.7455 628.1145C 114.6861 629.0649 114.627 630.7059 114.627 632.3173L114.627 632.3173L114.627 647.7084L114.627 647.7084L110.1417 647.7084L110.1417 647.7084L110.1417 647.7084z" stroke="none" fill="#99999A" fill-rule="evenodd" /><path transform="matrix(1 0 0 -1 0 792)" d="M125.8989 643.4691C 127.4628 643.4691 128.4364 644.5059 128.4364 645.8008C 128.4072 647.1252 127.4628 648.1331 125.9284 648.1331C 124.3937 648.1331 123.3906 647.1252 123.3906 645.8008C 123.3906 644.5059 124.364 643.4691 125.8698 643.4691L125.8698 643.4691L125.8989 643.4691L125.8989 643.4691L125.8989 643.4691zM128.1416 628.1307L128.1416 641.6266L128.1416 641.6266L123.656 641.6266L123.656 641.6266L123.656 628.131L123.656 628.131L128.1416 628.131L128.1416 628.131L128.1416 628.1307z" stroke="none" fill="#FFFFFF" fill-rule="evenodd" /><path transform="matrix(1 0 0 -1 0 792)" d="M130.6237 628.1307L135.1095 628.1307L135.1095 628.1307L135.1095 635.6677C 135.1095 636.0706 135.1386 636.4734 135.2574 636.762C 135.5814 637.568 136.3199 638.4026 137.5586 638.4026C 139.1821 638.4026 139.8312 637.1649 139.8312 635.3508L139.8312 635.3508L139.8312 628.131L139.8312 628.131L144.3165 628.131L144.3165 628.131L144.3165 635.8691C 144.3165 640.0147 142.1038 641.9436 139.1522 641.9436C 136.7321 641.9436 135.67 640.5909 135.0797 639.6694L135.0797 639.6694L135.1092 639.6694L135.1092 639.6694L135.1092 641.6269L135.1092 641.6269L130.6234 641.6269C 130.6828 640.3604 130.6237 628.1307 130.6237 628.1307L130.6237 628.1307L130.6237 628.1307z" stroke="none" fill="#FFFFFF" fill-rule="evenodd" /><path transform="matrix(1 0 0 -1 0 792)" d="M150.8861 629.3954C 150.8861 630.1432 151.492 630.748 152.2399 630.748C 152.9875 630.748 153.5931 630.1432 153.5931 629.3954C 153.5931 628.6475 152.9875 628.041 152.2399 628.041C 151.492 628.041 150.8861 628.6475 150.8861 629.3954L150.8861 629.3954L150.8861 629.3954zM150.5942 629.3954C 150.5942 628.4884 151.3329 627.7495 152.2399 627.7495C 153.1463 627.7495 153.8853 628.4882 153.8853 629.3954C 153.8853 630.3018 153.1465 631.0402 152.2399 631.0402C 151.3329 631.0402 150.5942 630.3018 150.5942 629.3954L150.5942 629.3954L150.5942 629.3954zM151.9523 630.0539L152.2042 630.0539C 152.4164 630.0588 152.6508 630.045 152.6508 629.7928C 152.6508 629.5406 152.4164 629.5276 152.2042 629.5276L152.2042 629.5276L151.9523 629.5276L151.9523 629.5276L151.9523 630.0539L151.9523 630.0539L151.9523 630.0539zM151.607 628.4658L151.9523 628.4658L151.9523 628.4658L151.9523 629.2361L151.9523 629.2361L152.2042 629.2361L152.2042 629.2361L152.6729 628.4655L152.6729 628.4655L153.0356 628.4655L153.0356 628.4655L152.5447 629.2623C 152.8015 629.2933 152.9961 629.4526 152.9961 629.7801C 152.9961 630.143 152.7839 630.3455 152.3327 630.3455L152.3327 630.3455L151.607 630.3455L151.607 630.3455L151.607 628.4658L151.607 628.4658L151.607 628.4658z" stroke="none" fill="#99999A" fill-rule="evenodd" /></g></g></g></svg>